<?xml version="1.0" encoding="utf-8"?>
<!-- Generator: Adobe Illustrator 24.0.2, SVG Export Plug-In . SVG Version: 6.00 Build 0)  -->
<svg version="1.1" id="Layer_1" xmlns="http://www.w3.org/2000/svg" xmlns:xlink="http://www.w3.org/1999/xlink" x="220px" y="36px"
	 viewBox="0 0 501.48 91.18" style="enable-background:new 0 0 501.48 91.18;" xml:space="preserve">
<style type="text/css">
	.st0{fill:#ffc451;;}
	.st1{font-family:'Raleway-SemiBold';}
	.st2{font-size:53.7544px;}
	.st3{fill:#ffc451;;}
	.st4{fill:none;stroke:#000000;stroke-miterlimit:1;}
	.st5{fill:#fff;}
	.st6{fill:none;stroke:#fff;stroke-miterlimit:4;}

</style>
<text transform="matrix(1 0 0 1 101.6929 75.8311)" class="st0 st1 st2">Power Portfolio</text>
<g>
	<g>
		<g>
			<path class="st5" d="M74.65,69.92V28.76c0-3.87-3.15-7.01-7.01-7.01v-0.02c-0.1,0-0.21,0-0.31,0c2.49,1.36,4.19,4.01,4.19,7.04
				v41.16c0,2.92-1.57,5.47-3.91,6.87c0.48,0,0.97,0,1.45,0C72.24,76.13,74.65,73.3,74.65,69.92z"/>
			<path class="st3" d="M70.51,69.92V28.76c0-3.87-3.15-7.01-7.01-7.01v-0.02c-8.02,0-16.04,0-24.05,0c-0.63,0-1.25,0-2.12,0
				c0-1.36,0.01-2.5,0-3.64c-0.05-3.17-1.77-4.93-4.93-4.94c-6.97-0.02-13.93-0.02-20.9,0c-3.2,0.01-4.92,1.74-4.93,4.9
				c-0.01,16.64-0.02,33.27,0,49.91c0.01,5.21,3.53,8.83,8.76,8.84c16.51,0.04,33.03,0.04,49.54,0.01
				C68.08,76.15,70.51,73.31,70.51,69.92z"/>
			<path class="st3" d="M78.78,30.57c-0.01-4.61-2.8-7.92-7.04-8.68c2.34,1.4,3.91,3.95,3.91,6.87v41.16c0,2.77-1.42,5.22-3.56,6.66
				c4-0.83,6.68-4.14,6.69-8.53C78.81,55.55,78.81,43.06,78.78,30.57z"/>
		</g>
		<polygon class="st0" points="71.51,50.92 71.51,36.48 89.78,36.48 85.16,43.7 89.78,50.92 		"/>
	</g>
	<path d="M59.75,71.35H37.92v-44.2h21.83c3.64,0,6.59,2.95,6.59,6.59v31.01C66.35,68.4,63.4,71.35,59.75,71.35z"/>
	<polyline class="st6" points="41.8,74.48 41.8,49.3 62.47,49.3 62.47,26.37 	"/>
</g>
</svg>
